<?xml version="1.0" encoding="UTF-8"?>
<svg width="20px" height="16px" viewBox="0 0 20 16" version="1.1" xmlns="http://www.w3.org/2000/svg" xmlns:xlink="http://www.w3.org/1999/xlink">
    <title>EDF427F3-FC00-457B-9E84-26D8467514FA</title>
    <g id="Layout" stroke="none" stroke-width="1" fill="none" fill-rule="evenodd">
        <g id="AmCham/Public-Affairs" transform="translate(-1090.000000, -2133.000000)" fill="#FFFFFF" fill-rule="nonzero">
            <g id="footer" transform="translate(0.000000, 1403.000000)">
                <g id="Group-12" transform="translate(1080.000000, 717.000000)">
                    <g id="Group-11" transform="translate(0.000000, 1.000000)">
                        <g id="twitter" transform="translate(10.000000, 12.000000)">
                            <path d="M20,1.9 C19.4416244,2.7 18.7436548,3.4125 17.9441624,3.9875 C17.9568528,4.1625 17.9568528,4.3375 17.9568528,4.5125 C17.9568528,9.85 13.8324873,16 6.29441624,16 C3.97208122,16 1.81472081,15.3375 0,14.1875 C0.329949239,14.225 0.647208122,14.2375 0.989847716,14.2375 C2.90609137,14.2375 4.67005076,13.6 6.0786802,12.5125 C4.27664975,12.475 2.76649746,11.3125 2.24619289,9.7125 C2.5,9.75 2.75380711,9.775 3.02030457,9.775 C3.38832487,9.775 3.75634518,9.725 4.09898477,9.6375 C2.22081218,9.2625 0.812182741,7.6375 0.812182741,5.675 L0.812182741,5.625 C1.35786802,5.925 1.99238579,6.1125 2.66497462,6.1375 C1.56091371,5.4125 0.837563452,4.175 0.837563452,2.775 C0.837563452,2.025 1.04060914,1.3375 1.39593909,0.7375 C3.41370558,3.1875 6.44670051,4.7875 9.84771574,4.9625 C9.78426396,4.6625 9.74619289,4.35 9.74619289,4.0375 C9.74619289,1.8125 11.5736041,0 13.8451777,0 C15.0253807,0 16.0913706,0.4875 16.8401015,1.275 C17.7664975,1.1 18.6548223,0.7625 19.4416244,0.3 C19.1370558,1.2375 18.4898477,2.025 17.6395939,2.525 C18.464467,2.4375 19.2639594,2.2125 20,1.9 Z" id="Path"></path>
                        </g>
                    </g>
                </g>
            </g>
        </g>
    </g>
</svg>