<svg width="72" height="58" viewBox="0 0 72 58" fill="none" xmlns="http://www.w3.org/2000/svg">
<path d="M15.9578 58C11.3984 58 7.59894 56.5421 4.55937 53.6262C1.51979 50.7104 0 47.0339 0 42.5967C0 40.188 0.379948 37.7159 1.13984 35.1803C2.02639 32.6448 3.48285 29.2219 5.50923 24.9115L17.6675 0H33.0554L25.0765 29.6656C29.7625 32.9618 32.1055 37.3355 32.1055 42.7869C32.1055 47.0973 30.5224 50.7104 27.3562 53.6262C24.3166 56.5421 20.5172 58 15.9578 58ZM54.9024 58C50.343 58 46.5435 56.5421 43.504 53.6262C40.4644 50.7104 38.9446 47.0339 38.9446 42.5967C38.9446 40.188 39.3245 37.7159 40.0844 35.1803C40.971 32.6448 42.4274 29.2219 44.4538 24.9115L56.6121 0H72L64.0211 29.6656C68.7071 32.9618 71.0501 37.3355 71.0501 42.7869C71.0501 47.0973 69.467 50.7104 66.3008 53.6262C63.2612 56.5421 59.4617 58 54.9024 58Z" fill="url(#paint0_linear_386_2529)"/>
<defs>
<linearGradient id="paint0_linear_386_2529" x1="72" y1="27.0329" x2="2.63108e-07" y2="27.0329" gradientUnits="userSpaceOnUse">
<stop stop-color="#00728F"/>
<stop offset="1" stop-color="#00C0AA"/>
</linearGradient>
</defs>
</svg>
