<svg width="32" height="32" viewBox="0 0 32 32" fill="none" xmlns="http://www.w3.org/2000/svg">
<circle cx="16" cy="16" r="15.25" fill="url(#paint0_linear_59_240)" stroke="url(#paint1_linear_59_240)" stroke-width="1.5"/>
<path d="M17.0696 9.75037L16.8958 9.58267L16.7222 9.75065L15.8049 10.6384L15.6196 10.8177L15.8045 10.9973L20.3974 15.4609H8.7467H8.4967V15.7109V17.0116V17.2616H8.7467H20.3955L15.7835 21.7248L15.6 21.9025L15.7815 22.0822L16.7202 23.0112L16.8941 23.1833L17.0699 23.0132L23.7472 16.5512L23.9332 16.3713L23.7469 16.1917L17.0696 9.75037Z" fill="white" stroke="white" stroke-width="0.5"/>
<defs>
<linearGradient id="paint0_linear_59_240" x1="32" y1="14.9147" x2="1.16937e-07" y2="14.9147" gradientUnits="userSpaceOnUse">
<stop stop-color="#00728F"/>
<stop offset="1" stop-color="#00C0AA"/>
</linearGradient>
<linearGradient id="paint1_linear_59_240" x1="32" y1="14.9147" x2="1.16937e-07" y2="14.9147" gradientUnits="userSpaceOnUse">
<stop stop-color="#00728F"/>
<stop offset="1" stop-color="#00C0AA"/>
</linearGradient>
<linearGradient id="paint2_linear_59_240" x1="297" y1="15.0504" x2="52" y2="15.0504" gradientUnits="userSpaceOnUse">
<stop stop-color="#00728F"/>
<stop offset="1" stop-color="#00C0AA"/>
</linearGradient>
<linearGradient id="paint3_linear_59_240" x1="297" y1="15.0504" x2="52" y2="15.0504" gradientUnits="userSpaceOnUse">
<stop stop-color="#00728F"/>
<stop offset="1" stop-color="#00C0AA"/>
</linearGradient>
</defs>
</svg>
