<?xml version="1.0" encoding="UTF-8"?>
<svg width="10px" height="15px" viewBox="0 0 10 15" version="1.1" xmlns="http://www.w3.org/2000/svg" xmlns:xlink="http://www.w3.org/1999/xlink">
    <title>C25F142E-AFA8-4F89-A72E-A4E4DC367863</title>
    <g id="Layout" stroke="none" stroke-width="1" fill="none" fill-rule="evenodd" opacity="0.75">
        <g id="AmCham" transform="translate(-1132.000000, -14.000000)">
            <g id="Group-15" transform="translate(1034.000000, 13.000000)">
                <g id="Group-3" transform="translate(99.000000, 0.000000)">
                    <g id="lock" transform="translate(0.000000, 2.000000)">
                        <path d="M1.3308345,5.77777778 L1.32691058,4.33712429 C1.32208242,1.44570809 2.21060682,0 3.99250351,0 C5.7744002,0 6.6616387,1.44570809 6.65426518,4.33712429 L6.65426518,5.77777778 M1.3308345,5.77777778 L6.6691655,5.77777778 C7.4041651,5.77777778 8,6.42447758 8,7.22222222 C8,7.22357877 8,7.22493532 8,7.22629187 L7.988746,11.5596252 C7.98667934,12.3557778 7.39145257,13 6.65791682,13 L1.3308345,13 C0.595834902,13 0,12.3533002 0,11.5555556 L0,7.22222222 C0,6.42447758 0.595834902,5.77777778 1.3308345,5.77777778 Z" id="Shape" stroke="#4D4D4D" stroke-width="0.7" stroke-linecap="round" stroke-linejoin="round"></path>
                        <ellipse id="Oval" fill="#4D4D4D" fill-rule="nonzero" cx="3.99250351" cy="9.38888889" rx="1" ry="1.08333333"></ellipse>
                    </g>
                </g>
            </g>
        </g>
    </g>
</svg>