<svg width="182" height="96" viewBox="0 0 182 96" fill="none" xmlns="http://www.w3.org/2000/svg">
<path d="M26.9597 4.08166L62.5362 96H41.4611C38.3169 96 35.9884 93.551 34.6223 90.1102L0 0.126556H21.7562C24.6311 0.126556 25.8627 1.35921 26.9597 4.08166ZM167.704 27.7959C171.26 23.6653 172.969 19.2245 172.969 14.4898C172.969 7.23268 167.357 2.30207 164.074 0.110229H140.83C146.302 3.94288 150.409 8.87349 150.409 14.4898C150.409 21.4735 146.849 27.7755 140.283 31.4735C151.914 34.7388 157.525 43.9388 157.525 53.1061C157.525 68.7184 147.807 76.1143 134.533 76.1143H124.526V0.126556H101.261V90.1102C101.252 90.8749 101.393 91.6339 101.677 92.3439C101.961 93.0538 102.382 93.7008 102.916 94.2478C103.45 94.7947 104.087 95.231 104.789 95.5317C105.492 95.8324 106.247 95.9915 107.011 96H131.915C162.431 96 181.316 79.8368 181.316 54.9102C181.316 42.6041 175.611 33.7143 167.704 27.8123V27.7959ZM71.1204 4.08166L50.9017 56.5551H71.9727C75.1209 56.5551 77.4495 54.1062 78.8156 50.6653L98.076 0.126556H76.3199C73.4449 0.126556 72.2133 1.35921 71.1204 4.08166Z" fill="white"/>
</svg>
