<svg width="24" height="25" viewBox="0 0 24 25" fill="none" xmlns="http://www.w3.org/2000/svg">
<path d="M16.5 12.2029L12.1333 7.8362L11.2 8.73621L14 11.5362L7.46667 11.5362L7.46667 12.9029L14 12.9029L11.2 15.7029L12.1333 16.6362L16.5 12.2029ZM24 12.2362C24 13.9029 23.6836 15.4638 23.0507 16.9189C22.4169 18.3749 21.5609 19.6415 20.4827 20.7189C19.4053 21.7971 18.1387 22.6531 16.6827 23.2869C15.2276 23.9198 13.6667 24.2362 12 24.2362C10.3333 24.2362 8.772 23.9198 7.316 23.2869C5.86089 22.6531 4.59422 21.7971 3.516 20.7189C2.43867 19.6415 1.58311 18.3749 0.949333 16.9189C0.316444 15.4638 -4.51684e-07 13.9029 -5.24537e-07 12.2362C-5.97389e-07 10.5695 0.316444 9.00821 0.949332 7.55221C1.58311 6.0971 2.43867 4.83043 3.516 3.7522C4.59422 2.67487 5.86089 1.81932 7.316 1.18554C8.772 0.55265 10.3333 0.236206 12 0.236206C13.6667 0.236205 15.2276 0.55265 16.6827 1.18554C18.1387 1.81932 19.4053 2.67487 20.4827 3.7522C21.5609 4.83043 22.4169 6.09709 23.0507 7.55221C23.6836 9.00821 24 10.5695 24 12.2362ZM22.6667 12.2362C22.6667 9.25843 21.6333 6.73621 19.5667 4.66954C17.5 2.60287 14.9778 1.56954 12 1.56954C9.02222 1.56954 6.5 2.60287 4.43333 4.66954C2.36667 6.73621 1.33333 9.25843 1.33333 12.2362C1.33333 15.214 2.36667 17.7362 4.43333 19.8029C6.5 21.8695 9.02222 22.9029 12 22.9029C14.9778 22.9029 17.5 21.8695 19.5667 19.8029C21.6333 17.7362 22.6667 15.214 22.6667 12.2362Z" fill="white"/>
</svg>
