<?xml version="1.0" standalone="no"?>
<!DOCTYPE svg PUBLIC "-//W3C//DTD SVG 20010904//EN"
 "http://www.w3.org/TR/2001/REC-SVG-20010904/DTD/svg10.dtd">
<svg version="1.0" xmlns="http://www.w3.org/2000/svg"
 width="48.000000pt" height="48.000000pt" viewBox="0 0 48.000000 48.000000"
 preserveAspectRatio="xMidYMid meet">

<g transform="translate(0.000000,48.000000) scale(0.100000,-0.100000)"
fill="#000000" stroke="none">
<path d="M123 370 c1 -19 8 -25 27 -25 19 0 26 6 27 25 3 25 3 25 -7 3 -5 -13
-14 -23 -20 -23 -6 0 -15 10 -20 23 -10 22 -10 22 -7 -3z"/>
<path d="M303 370 c1 -19 8 -25 27 -25 19 0 26 6 27 25 3 25 3 25 -7 3 -5 -13
-14 -23 -20 -23 -6 0 -15 10 -20 23 -10 22 -10 22 -7 -3z"/>
<path d="M226 225 c-3 -8 -15 -15 -26 -15 -24 0 -27 -15 -4 -24 12 -4 14 -13
10 -32 -6 -23 -5 -24 14 -14 14 8 26 8 40 0 19 -10 20 -9 15 13 -5 17 -2 26 9
30 23 9 20 27 -4 27 -11 0 -23 7 -26 15 -4 8 -10 15 -14 15 -4 0 -10 -7 -14
-15z"/>
<path d="M342 185 c-21 -9 -38 -27 -48 -50 -20 -49 1 -100 51 -120 31 -14 39
-14 70 0 78 32 78 138 1 170 -41 18 -33 18 -74 0z m90 -32 c23 -20 24 -80 1
-105 -20 -23 -80 -24 -105 -1 -23 20 -24 80 -1 105 20 23 80 24 105 1z"/>
<path d="M370 122 c0 -16 9 -37 20 -47 25 -23 39 -12 17 13 -10 10 -17 28 -17
40 0 12 -4 22 -10 22 -5 0 -10 -13 -10 -28z"/>
</g>
</svg>
