<?xml version="1.0" standalone="no"?>
<!DOCTYPE svg PUBLIC "-//W3C//DTD SVG 20010904//EN"
 "http://www.w3.org/TR/2001/REC-SVG-20010904/DTD/svg10.dtd">
<svg version="1.0" xmlns="http://www.w3.org/2000/svg"
 width="48.000000pt" height="48.000000pt" viewBox="0 0 48.000000 48.000000"
 preserveAspectRatio="xMidYMid meet">

<g transform="translate(0.000000,48.000000) scale(0.100000,-0.100000)"
fill="#000000" stroke="none">
<path d="M189 431 c-28 -29 -38 -64 -20 -75 5 -3 11 2 13 12 7 25 84 48 104
31 8 -6 14 -21 14 -32 0 -15 3 -18 11 -10 26 26 -30 103 -76 103 -9 0 -30 -13
-46 -29z"/>
<path d="M200 350 c0 -5 5 -10 10 -10 6 0 10 5 10 10 0 6 -4 10 -10 10 -5 0
-10 -4 -10 -10z"/>
<path d="M260 350 c0 -5 5 -10 10 -10 6 0 10 5 10 10 0 6 -4 10 -10 10 -5 0
-10 -4 -10 -10z"/>
<path d="M227 195 c-4 -24 -4 -51 -1 -60 5 -12 -2 -15 -30 -15 -44 0 -48 20
-10 45 25 16 25 18 10 33 -16 16 -18 16 -32 -3 -8 -11 -18 -32 -21 -47 -3 -14
-14 -28 -24 -31 -20 -5 -27 -27 -9 -27 6 0 10 -13 10 -30 l0 -30 120 0 120 0
0 30 c0 17 5 30 10 30 18 0 11 22 -9 27 -10 3 -21 17 -24 31 -3 15 -13 36 -21
47 -14 19 -16 19 -32 3 -15 -15 -15 -17 10 -33 38 -25 34 -45 -10 -45 -28 0
-35 3 -30 15 7 19 -4 105 -14 105 -4 0 -10 -20 -13 -45z"/>
</g>
</svg>
