<?xml version="1.0" encoding="UTF-8"?>
<svg width="14px" height="15px" viewBox="0 0 14 15" version="1.1" xmlns="http://www.w3.org/2000/svg" xmlns:xlink="http://www.w3.org/1999/xlink">
    <title>EBBC3F76-6E1E-4148-A65E-D06CEC4537D0</title>
    <g id="Layout" stroke="none" stroke-width="1" fill="none" fill-rule="evenodd">
        <g id="AmCham/Newsroom" transform="translate(-540.000000, -883.000000)" fill="#E5E542" fill-rule="nonzero">
            <g id="Group-8" transform="translate(0.000000, 365.000000)">
                <g id="Group-17" transform="translate(532.000000, 510.000000)">
                    <g id="volume-medium" transform="translate(8.250000, 8.250000)">
                        <path d="M11.0382443,12.2068151 C10.8497659,12.2068151 10.6613795,12.132289 10.5175432,11.9832687 C10.2299932,11.6851644 10.2299932,11.2018105 10.5175432,10.9036744 C12.5272943,8.82015703 12.5272943,5.43000008 10.5175432,3.34648269 C10.2299932,3.04834659 10.2299932,2.5649927 10.5175432,2.26688841 C10.8050932,1.96881593 11.2713648,1.96878413 11.5589148,2.26688841 C12.8106409,3.56449451 13.5,5.28982236 13.5,7.12501494 C13.5,8.96020752 12.8106409,10.6855354 11.5589148,11.9832051 C11.4151398,12.132289 11.226692,12.2068151 11.0382443,12.2068151 L11.0382443,12.2068151 L11.0382443,12.2068151 Z M8.42246591,10.7673455 C8.2339875,10.7673455 8.04560114,10.6928194 7.90176477,10.5437673 C7.61418409,10.2456312 7.61418409,9.76234088 7.90176477,9.46420479 C9.1459125,8.17439165 9.1459125,6.07573366 7.90176477,4.78595233 C7.61418409,4.48781623 7.61418409,4.00446234 7.90176477,3.70635805 C8.18934545,3.40825376 8.65555568,3.40825376 8.94313636,3.70635805 C10.7614943,5.59145733 10.7614943,8.65873159 8.94313636,10.5438309 C8.79936136,10.6928194 8.61091364,10.7673455 8.42246591,10.7673455 Z" id="Shape"></path>
                        <path d="M6.38191023,14.25 C6.25415114,14.25 6.12860114,14.1983121 6.03468409,14.100916 L2.25121705,10.17858 L0.490909091,10.17858 C0.219804545,10.17858 0,9.95073949 0,9.66965246 L0,4.58037742 C0,4.29932221 0.219804545,4.07144992 0.490909091,4.07144992 L2.25121705,4.07144992 L6.03468409,0.149082028 C6.17511477,0.00349695387 6.38623636,-0.0400163477 6.56968295,0.0387719915 C6.75312955,0.117560331 6.87272727,0.303128022 6.87272727,0.508957389 L6.87272727,13.7410725 C6.87272727,13.9469337 6.75312955,14.1325014 6.56968295,14.2112579 C6.50896364,14.2373404 6.44514545,14.25 6.38191023,14.25 Z" id="Path"></path>
                    </g>
                </g>
            </g>
        </g>
    </g>
</svg>