<?xml version="1.0" encoding="UTF-8"?>
<svg width="19px" height="18px" viewBox="0 0 19 18" version="1.1" xmlns="http://www.w3.org/2000/svg" xmlns:xlink="http://www.w3.org/1999/xlink">
    <title>7A5CA104-7122-4585-9B47-DCCE3DC30915</title>
    <g id="Layout" stroke="none" stroke-width="1" fill="none" fill-rule="evenodd">
        <g id="AmCham/Public-Affairs" transform="translate(-1171.000000, -2131.000000)" fill="#FFFFFF" fill-rule="nonzero">
            <g id="footer" transform="translate(0.000000, 1403.000000)">
                <g id="Group-12" transform="translate(1080.000000, 717.000000)">
                    <g id="Group-10" transform="translate(80.000000, 0.000000)">
                        <g id="linkedin" transform="translate(11.000000, 11.000000)">
                            <path d="M4.31705729,5.84877384 L4.31705729,18 L0.235026042,18 L0.235026042,5.84877384 L4.31705729,5.84877384 Z M4.57682292,2.09673025 C4.58919271,3.26158038 3.69856771,4.19346049 2.27604167,4.19346049 L2.27604167,4.19346049 L2.25130208,4.19346049 C0.878255208,4.19346049 0,3.26158038 0,2.09673025 C0,0.907356948 0.915364583,0 2.30078125,0 C3.69856771,0 4.56445313,0.907356948 4.57682292,2.09673025 Z M19,11.0354223 L19,18 L14.9303385,18 L14.9303385,11.5013624 C14.9303385,9.87057221 14.3365885,8.75476839 12.8645833,8.75476839 C11.7389323,8.75476839 11.0709635,9.5027248 10.7740885,10.226158 C10.6751302,10.4959128 10.6380208,10.8514986 10.6380208,11.219346 L10.6380208,18 L6.56835938,18 C6.61783854,6.98910082 6.56835938,5.84877384 6.56835938,5.84877384 L10.6380208,5.84877384 L10.6380208,7.61444142 L10.6132812,7.61444142 C11.1451823,6.78065395 12.110026,5.56675749 14.311849,5.56675749 C16.9960938,5.56675749 19,7.30790191 19,11.0354223 Z" id="Shape"></path>
                        </g>
                    </g>
                </g>
            </g>
        </g>
    </g>
</svg>