<?xml version="1.0" encoding="UTF-8"?>
<svg width="229px" height="61px" viewBox="0 0 229 61" version="1.1" xmlns="http://www.w3.org/2000/svg" xmlns:xlink="http://www.w3.org/1999/xlink">
    <title>734171DF-5B4C-476A-A274-3D3CF8E67ACC</title>
    <g id="Layout" stroke="none" stroke-width="1" fill="none" fill-rule="evenodd">
        <g id="AmCham" transform="translate(-80.000000, -34.000000)" fill-rule="nonzero">
            <g id="amcham-logo" transform="translate(80.000000, 34.000000)">
                <g id="Group" transform="translate(0.000000, 3.812500)">
                    <path d="M2.37310172e-14,0.0120982625 L0.39189618,0.0120982625 C0.141245915,0.00403275415 2.37310172e-14,-9.1038288e-15 2.37310172e-14,-9.1038288e-15 L2.37310172e-14,0.0120982625 Z M49.1348,18.4708206 C48.0717816,12.5200885 42.9281443,8.70429656 38.4948187,7.53157165 C33.0213354,5.94024686 25.8733124,6.23544447 25.8733124,6.23544447 L0,6.23544447 L0,8.3574797 L27.8564703,8.3558666 C33.6998057,8.3558666 39.7815445,10.0633347 42.3811225,12.3974928 C44.6924935,14.4743612 49.4826079,19.8040491 46.1441423,27.0250987 C41.9769796,36.0423369 31.9550512,36.701289 31.9550512,36.701289 C31.9550512,36.701289 46.3972419,33.8686825 44.791284,21.2090606 C44.4924632,18.8555453 42.3492809,14.4598433 37.5575337,12.3942666 C33.036848,10.2738445 25.607966,10.6738937 23.5986816,10.6738937 L0,10.6730871 L0,19.0241144 C0,19.0241144 27.9372989,13.9638145 35.0004111,21.4187638 C41.7875631,28.5833549 35.199625,34.5171493 35.199625,34.5171493 C35.199625,34.5171493 33.7242992,36.5601426 29.7432872,37.3303986 C28.6002566,37.5538132 28.3520557,37.5223577 28.3520557,37.5223577 C28.3520557,37.5223577 28.405125,37.527197 28.4728904,37.5320363 C29.9359694,37.4658992 39.7072475,36.8246912 44.4736848,31.5127475 C48.1893505,27.3719155 50.1610781,24.2126559 49.1348,18.4708206" id="Shape" fill="#FFFFFF"></path>
                    <path d="M55.1112167,38.1732442 L55.1112167,44.3957839 L55.1112167,57.1586442 L28.7896731,57.1586442 C28.7896731,57.1586442 11.0082004,58.1386035 4.85134813,48.6769557 C0.451497057,41.9156401 0.84910839,34.3905208 6.01397346,27.9727959 C13.5922658,18.5530887 27.2400503,19.6806468 27.2400503,19.6806468 C27.2400503,19.6806468 21.4301894,20.3024975 19.7148272,25.4103839 C18.0990719,30.2230727 19.7491181,35.6100257 25.0013434,37.4707385 C26.8571351,38.1087202 29.3342455,38.1684049 32.1999863,38.1684049 L55.1112167,38.1732442 Z" id="Path" fill="#EAB92A"></path>
                    <path d="M27.2408668,19.6822599 C26.8285593,19.7451709 26.4448276,19.8225998 26.0913046,19.9121269 C25.8480024,19.9758444 25.575308,20.057306 25.2830188,20.1581249 C23.4313093,20.793687 20.7819278,22.2357998 19.7156436,25.4128036 C18.0998884,30.2254924 19.7499346,35.6124454 25.0029763,37.471545 C26.8595844,38.1111398 29.335062,38.1724377 32.2016192,38.1724377 L45.2550278,38.1740508 L55.1120332,38.1740508 L55.1120332,44.3965904 L55.1120332,50.9369111 L30.7736475,50.9369111 C30.7736475,50.9369111 24.9637867,51.1369357 19.4911198,49.5456109 C15.0561614,48.3736926 9.08545977,44.8748751 8.02244138,38.9233365 C6.99616326,33.1815011 8.52864061,29.4592691 12.2573695,25.5854054 C16.2922672,21.3953739 24.4616697,19.7766264 27.2408668,19.6822599" id="Path" fill="#C20E1A"></path>
                    <path d="M32.1999863,38.1716311 L45.2533949,38.1732442 L55.1104003,38.1732442 L55.1104003,44.3957839 L28.7896731,44.3957839 C23.7595224,44.3957839 17.1715843,42.7318695 14.8569475,37.8933711 C13.0917818,34.2025945 12.8199038,29.7762435 15.7574922,25.8531803 C19.7311562,20.4855845 27.2400503,19.6822599 27.2400503,19.6822599 C27.2400503,19.6822599 21.4301894,20.3041106 19.7148272,25.411997 C18.0990719,30.2246858 19.7483017,35.6116388 25.0013434,37.4707385 C26.8579515,38.1103333 29.3342455,38.1716311 32.1999863,38.1716311" id="Path" fill="#000000"></path>
                    <path d="M26.0913046,19.9121269 C25.8030976,19.985523 25.533669,20.0677912 25.2830188,20.1573183 C25.575308,20.0564995 25.8480024,19.976651 26.0913046,19.9121269" id="Path" fill="#C20E1A"></path>
                    <path d="M27.2408668,19.6822599 C27.2408668,19.6822599 26.784471,19.7314595 26.0913046,19.9121269 C26.4456441,19.8225998 26.8277429,19.7451709 27.2408668,19.6822599" id="Path" fill="#C20E1A"></path>
                    <path d="M26.7395662,19.7588822 L26.5607636,19.7919508 C26.3966571,19.8234063 26.1958103,19.8693797 25.9663877,19.9282579 C26.2717402,19.8548618 26.537903,19.7984032 26.7395662,19.7588822" id="Path" fill="#C20E1A"></path>
                    <path d="M44.7921005,21.2090606 C44.4932796,18.8547388 42.3500974,14.4590367 37.5583501,12.3934601 C33.0376644,10.2730379 25.6087825,10.6730871 23.5994981,10.6730871 L0,10.6730871 L0,8.35667315 L27.8564703,8.35506005 C33.7006221,8.35506005 39.782361,10.0625282 42.381939,12.3966863 C44.69331,14.4735546 49.4834243,19.8032425 46.1441423,27.0234856 C41.9769796,36.0415304 31.9558677,36.7004824 31.9558677,36.7004824 C31.9558677,36.7004824 46.3988748,33.8678759 44.7921005,21.2090606" id="Path" fill="#C20E1A"></path>
                    <path d="M39.4165912,19.4911074 C34.9979618,14.2686907 25.6104154,14.9340952 23.5986816,14.9340952 L0,14.9340952 L0,12.6176812 L27.8556539,12.6176812 C33.6998057,12.6176812 37.8228801,14.4098371 40.2191619,16.9536984 C45.3627993,22.413241 43.4220967,28.1905646 40.2705983,31.6901887 C37.6334636,34.6211944 34.0435313,35.7447197 34.0435313,35.7447197 C34.0435313,35.7447197 38.7675131,33.3089362 40.7278105,29.1600387 C42.3582619,25.7572008 41.0658209,21.4405407 39.4165912,19.4911074" id="Path" fill="#C20E1A"></path>
                    <path d="M23.5986816,19.0354061 L0,19.0354061 L0,16.7181856 L26.2047912,16.7181856 C32.0522088,16.7181856 36.878247,18.8732894 38.4433823,22.0067394 C42.5991148,30.3319571 35.1865618,34.5268279 35.1865618,34.5268279 C35.1865618,34.5268279 38.2662126,31.2441661 37.5999891,26.8726606 C36.211207,17.7570231 25.6120483,19.0354061 23.5986816,19.0354061" id="Path" fill="#C20E1A"></path>
                    <path d="M44.4753177,31.513554 C48.1909834,27.3719155 50.1618946,24.2134625 49.1356165,18.4716271 C48.0717816,12.5208951 42.9289607,8.70510311 38.4948187,7.5323782 C33.0213354,5.94105341 25.8741288,6.23625102 25.8741288,6.23625102 L0,6.23625102 L0,0.0137113641 L27.8564703,0.0137113641 C33.7006221,0.0137113641 40.0975108,0.385531297 45.3105464,3.32379597 C50.2745647,6.12575355 54.1869949,11.4062418 54.5601127,14.8953807 C55.3406393,22.1970854 53.4244303,26.6960259 47.3271789,31.9321539 C39.8158354,38.3845606 28.2704107,37.543328 28.2704107,37.543328 C28.2704107,37.543328 39.3161678,37.2626483 44.4753177,31.513554" id="Path" fill="#27509B"></path>
                </g>
                <path d="M5.33136126,9.53125 L3.65778596,8.3170075 L1.98421066,9.53125 L2.5067258,7.3878721 L0.950207469,5.99647568 L2.94696178,5.88667715 L3.65778596,3.8125 L4.36945837,5.88667715 L6.36706092,5.99647568 L4.80969435,7.3878721 L5.33136126,9.53125 Z M11.9798576,9.53125 L10.3062823,8.3170075 L8.63270696,9.53125 L9.1552221,7.3878721 L7.59785553,5.99647568 L9.59460984,5.88667715 L10.3062823,3.8125 L11.0171064,5.88667715 L13.0138607,5.99647568 L11.4573424,7.3878721 L11.9798576,9.53125 Z M18.4112047,9.53125 L16.7367812,8.3170075 L15.0623576,9.53125 L15.5848728,7.3878721 L14.0283544,5.99647568 L16.0242605,5.88667715 L16.7367812,3.8125 L17.4484536,5.88667715 L19.4452079,5.99647568 L17.8878413,7.3878721 L18.4112047,9.53125 Z M24.8417036,9.53125 L23.1681283,8.3170075 L21.4928565,9.53125 L22.0162199,7.3878721 L20.4580051,5.99647568 L22.4547594,5.88667715 L23.1672801,3.8125 L23.8781042,5.88667715 L25.8748586,5.99647568 L24.3183402,7.3878721 L24.8417036,9.53125 Z M31.2730508,9.53125 L29.5986272,8.3170075 L27.9250519,9.53125 L28.4475671,7.3878721 L26.8902005,5.99647568 L28.8869548,5.88667715 L29.5986272,3.8125 L30.3102996,5.88667715 L32.3070539,5.99647568 L30.7505356,7.3878721 L31.2730508,9.53125 Z" id="Shape" fill="#FFFFFF"></path>
                <g id="Group" transform="translate(73.165975, 0.000000)" fill="#000000">
                    <path d="M155.834025,40.5407052 C154.914006,40.3542232 153.737574,40.2451027 152.965919,40.2451027 L148.55289,48.8973804 C148.332763,49.3045464 148.111829,49.8639925 148.001362,50.382722 L147.815907,50.382722 C147.70544,49.8623639 147.521598,49.3045464 147.302277,48.8973804 L142.925532,40.2451027 C142.228059,40.2451027 140.757318,40.3183926 139.837299,40.5407052 C141.601543,44.3289778 143.845552,48.7108984 146.34436,52.8338614 L146.34436,60.6319048 L149.322126,60.6319048 L149.322126,52.8338614 C151.789488,48.7475433 153.737574,44.9600851 155.834025,40.5407052 M133.098822,60.5569863 L133.098822,40.3924968 L130.415365,40.3924968 L130.415365,54.2076395 C130.415365,54.6530791 130.45165,55.5806033 130.487935,56.1001471 L130.26942,56.1384207 C130.083965,55.5789746 129.864644,54.9869552 129.608232,54.5781606 L120.710411,40.3534089 C120.04761,40.3534089 118.5043,40.4674154 117.694747,40.6139951 L117.694747,60.6302761 L120.378204,60.6302761 L120.378204,46.3330489 C120.378204,45.8859806 120.341919,45.030932 120.304022,44.4755575 L120.488671,44.4389126 C120.746696,45.0692056 120.967629,45.7019416 121.299836,46.2206711 L130.454875,60.778489 C131.07736,60.7792989 132.399737,60.6685497 133.098822,60.5569863 M105.694985,52.1636661 L99.7007488,52.1636661 L102.237454,44.6253946 C102.385818,44.1783264 102.531764,43.549662 102.604333,42.9902159 L102.788982,42.9902159 C102.863164,43.549662 103.009109,44.2166 103.157474,44.6253946 L105.694985,52.1636661 Z M111.430391,60.4454228 C109.371838,54.0569881 106.797235,46.6685537 104.408087,40.3924968 L101.245672,40.3924968 C98.7444447,46.7801172 96.2077392,54.0203431 94.1854705,60.4063348 C94.9950231,60.6669211 96.059375,60.7418396 96.8689276,60.7784846 L99.0016631,54.5024277 L106.392458,54.5024277 L108.562285,60.7784846 C109.408929,60.742654 110.731305,60.6319048 111.430391,60.4454228 M88.844359,60.4836964 C88.3275033,53.9836982 87.6679276,47.0016155 86.8946598,40.3924968 L83.6580623,40.3924968 L78.7322093,55.0618738 C78.5120819,55.729626 78.327433,56.6205053 78.2532509,57.2507983 L78.0331236,57.2507983 C77.9605541,56.6205053 77.7388141,55.6913524 77.5178805,55.0618738 L72.6637906,40.3924968 L69.4271931,40.3924968 C68.5813558,47.0382604 67.9201675,53.9470533 67.3686397,60.4836964 C67.9919306,60.6685497 69.2441568,60.7418463 69.9779146,60.7418463 L71.3389949,46.4812573 C71.3768923,46.1107362 71.3768923,45.0325606 71.3768923,44.6620396 L71.5970197,44.6620396 C71.6712018,45.1465671 71.8897164,46.036632 72.0380806,46.4812573 L76.6712369,60.6302761 L79.428876,60.6302761 L84.1724991,46.4812573 C84.357148,45.9608992 84.5030932,45.1449385 84.5772753,44.6253946 L84.7974027,44.6253946 C84.7974027,45.0716486 84.7974027,45.9999871 84.8336874,46.4812573 L86.0843009,60.7418463 C86.8583751,60.742654 87.9606244,60.6685497 88.844359,60.4836964 M56.2542252,46.0740913 C56.2542252,48.7475433 54.8931449,49.8990088 51.9153784,49.8990088 L49.378673,49.8990088 L49.378673,42.7320727 C50.2607949,42.6196949 51.3283722,42.5455907 52.1742094,42.5455907 C54.8205754,42.546405 56.2542252,43.4747435 56.2542252,46.0740913 M58.4966212,55.8778345 C57.4322693,53.9470533 56.2542252,52.4617117 55.1874543,51.4959139 C57.7241597,50.7532431 59.1957069,48.8973804 59.1957069,45.9625278 C59.1957069,41.6188808 56.1800431,40.0586207 52.540282,40.0586207 C50.8848922,40.0586207 48.752963,40.2451027 46.5460454,40.5040603 L46.5460454,60.6319048 L49.3778666,60.6319048 L49.3778666,52.3135032 L52.4298152,52.3135032 C53.7167134,53.3900502 54.9310422,55.1351637 56.1074737,57.3631761 L57.8717176,60.7784846 C58.791737,60.7418396 60.1157263,60.6302761 60.9599509,60.4063348 L58.4966212,55.8778345 Z M38.4843858,58.0309283 L29.2914491,58.0309283 L29.2914491,51.4967282 L35.690462,51.4967282 L35.690462,48.9348397 L29.2914491,48.9348397 L29.2914491,42.9926589 L37.7853001,42.9926589 C37.8957669,42.325721 38.0062338,41.3957539 38.0062338,40.3949398 L26.3128763,40.3949398 L26.3128763,60.6343478 L38.1892701,60.6343478 C38.4102037,59.7776705 38.4843858,58.7735991 38.4843858,58.0309283 M17.2570153,59.702752 L17.2570153,50.19624 L10.1968141,50.19624 C10.1968141,50.9380964 10.2709962,51.9779984 10.4548388,52.6840243 L14.3889093,52.6840243 L14.3889093,57.8468893 C13.5067874,58.2174104 12.3287433,58.4405373 11.4474276,58.4405373 C7.21904765,58.4405373 4.86537848,56.806173 4.86537848,50.605849 C4.86537848,44.3664371 7.21904765,42.6571541 11.4837123,42.6571541 C13.06492,42.6571541 14.9404372,43.1025938 16.1910507,43.6604112 C16.4482691,42.8794668 16.7062938,41.8029199 16.8159543,40.9486856 C15.3452134,40.3175783 13.2858537,40.0211614 11.3740518,40.0211614 C5.60074891,40.0211614 1.7771452,43.2149716 1.7771452,50.4918425 C1.7771452,57.4356516 4.86537848,60.9999915 11.1910156,60.9999915 C13.5067874,61.0024259 15.8233655,60.4836964 17.2570153,59.702752" id="Shape"></path>
                    <path d="M152.762724,30.9438024 L152.762724,15.3493442 C152.762724,10.3998342 150.003473,8.8175871 146.667697,8.8175871 C144.237427,8.8175871 142.261119,9.64902009 139.995339,11.770355 C139.007588,9.60748916 137.072403,8.8175871 134.891288,8.8175871 C132.665825,8.8175871 131.102356,9.48289636 129.164752,11.2711695 L129.001067,11.2711695 L129.001067,9.1506489 C128.052827,9.1506489 126.61192,9.23371076 125.790272,9.39983449 L125.790272,30.9438024 L129.001067,30.9438024 L129.001067,13.6425043 C130.607271,12.4372929 132.173159,11.770355 133.985782,11.770355 C136.579737,11.770355 137.65054,13.2263807 137.65054,15.4307774 L137.65054,30.9429881 L140.861335,30.9429881 L140.861335,13.7255662 C142.467538,12.4356643 143.784271,11.770355 145.925876,11.770355 C148.521443,11.770355 149.551123,13.2263807 149.551123,15.4307774 L149.551123,30.9429881 L152.762724,30.9438024 L152.762724,30.9438024 Z M114.741171,26.8265397 C113.339774,27.8656274 111.197362,28.6148128 109.346035,28.6148128 C106.915765,28.6148128 105.927208,27.6571584 105.927208,25.2866379 C105.927208,22.5846842 106.918184,21.5431536 110.086243,21.4185608 L114.741171,21.2100918 L114.741171,26.8265397 L114.741171,26.8265397 Z M121.330477,28.1156273 L119.063891,28.1156273 C118.117263,28.1156273 117.827791,27.7418489 117.827791,26.7418492 L117.827791,10.8542315 C116.057903,9.43973676 112.96967,8.81595844 110.210418,8.81595844 C108.109935,8.81595844 106.462609,9.1074893 104.650792,9.64739143 C104.650792,10.6042316 104.814476,11.8509739 105.062018,12.6425046 C106.255383,12.1017881 108.315549,11.7271954 110.12656,11.7271954 C111.815009,11.7271954 113.709072,12.1433191 114.741171,12.7255665 L114.741171,18.7565094 L110.210418,18.9641641 C105.144264,19.1718187 102.550309,20.9609062 102.550309,25.4959212 C102.550309,29.4869624 105.103141,31.3591117 108.769511,31.3591117 C110.911116,31.3591117 112.845495,30.7768643 114.864539,29.113184 L115.028223,29.113184 C115.728921,30.8183953 117.169828,31.3591117 118.817155,31.3591117 C120.423358,31.3591117 121.330477,30.6954311 121.330477,29.0716531 L121.330477,28.1156273 L121.330477,28.1156273 Z M97.1027625,30.9438024 L97.1027625,15.3493442 C97.1027625,10.4812674 94.4257561,8.8175871 91.047245,8.8175871 C88.6185874,8.8175871 86.6406667,9.48289636 84.5417969,11.2711695 L84.3764999,11.2711695 L84.3764999,0 C83.4298717,0 81.9889649,0.124592799 81.1640922,0.291530863 L81.1640922,30.9429881 L84.3764999,30.9429881 L84.3764999,13.64169 C86.1891235,12.3941333 87.9590117,11.7695407 90.1417395,11.7695407 C92.8598686,11.7695407 93.9306711,13.1840354 93.9306711,15.4299631 L93.9306711,30.9421737 L97.1027625,30.9421737 L97.1027625,30.9438024 L97.1027625,30.9438024 Z M78.4749909,29.530122 C78.3113065,28.4063438 78.0226413,27.3680705 77.6936598,26.3680708 C75.7568618,27.6579727 73.4096433,28.2410344 71.1043537,28.2410344 C65.4616758,28.2410344 62.9499665,24.7475501 62.9499665,17.0122102 C62.9499665,8.48371097 65.83178,5.6156336 71.1454764,5.6156336 C73.3282042,5.6156336 75.4698093,6.11319047 77.1582585,7.02849966 C77.48724,6.0301286 77.8162215,4.86726248 77.8984669,3.86726276 C76.3349984,2.99511331 73.4918886,2.49511331 71.1043537,2.49511331 C64.0618917,2.49511331 59.2424739,6.85993293 59.2424739,16.8851744 C59.2424739,26.3680708 63.2378253,31.3583008 71.1043537,31.3583008 C73.5330113,31.3599261 76.4164375,30.7776787 78.4749909,29.530122 M53.3014549,30.9438024 L53.3014549,15.3493442 C53.3014549,10.3998342 50.5422031,8.8175871 47.2064274,8.8175871 C44.7761572,8.8175871 42.7998491,9.64902009 40.5348759,11.770355 C39.5471251,9.60748916 37.6111334,8.8175871 35.4284056,8.8175871 C33.2045551,8.8175871 31.639474,9.48289636 29.7042887,11.2711695 L29.5397979,11.2711695 L29.5397979,9.1506489 C28.5923634,9.1506489 27.1506503,9.23371076 26.3273902,9.39983449 L26.3273902,30.9438024 L29.5397979,30.9438024 L29.5397979,13.6425043 C31.1451954,12.4372929 32.7102766,11.770355 34.5229002,11.770355 C37.1168548,11.770355 38.1876574,13.2263807 38.1876574,15.4307774 L38.1876574,30.9429881 L41.4000651,30.9429881 L41.4000651,13.7255662 C43.0062689,12.4356643 44.3238076,11.770355 46.4646064,11.770355 C49.0601737,11.770355 50.0898536,13.2263807 50.0898536,15.4307774 L50.0898536,30.9429881 L53.3014549,30.9438024 L53.3014549,30.9438024 Z M15.0726748,19.3403855 L6.91828759,19.3403855 L10.5846575,8.11074691 C10.7483419,7.48696858 10.8313936,6.98778305 10.8725163,6.2385976 L11.1192524,6.2385976 C11.1611815,6.98778305 11.2837432,7.48696858 11.4490403,8.11074691 L15.0726748,19.3403855 Z M22.2385049,30.6954311 C19.4381304,21.7524369 16.1434774,11.9372931 12.9310697,2.91123697 L9.34936418,2.91123697 C5.89022038,12.2695405 2.71812908,21.7524369 0,30.6954311 C0.948240817,30.9853333 2.10048242,31.1107405 3.0890396,31.1522714 L5.97165943,22.2117201 L15.9378639,22.2117201 L18.9027291,31.1522714 C20.0146544,31.1107405 21.2499477,30.9861477 22.2385049,30.6954311" id="Shape"></path>
                </g>
            </g>
        </g>
    </g>
</svg>