<?xml version="1.0" encoding="UTF-8"?>
<svg width="19px" height="22px" viewBox="0 0 19 22" version="1.1" xmlns="http://www.w3.org/2000/svg" xmlns:xlink="http://www.w3.org/1999/xlink">
    <title>F642AD2E-7889-41E8-AB5C-E11799913216</title>
    <g id="Layout" stroke="none" stroke-width="1" fill="none" fill-rule="evenodd">
        <g id="AmCham/Public-Affairs" transform="translate(-1251.000000, -2129.000000)" fill="#FFFFFF" fill-rule="nonzero">
            <g id="footer" transform="translate(0.000000, 1403.000000)">
                <g id="Group-12" transform="translate(1080.000000, 717.000000)">
                    <g id="Group-9" transform="translate(160.000000, 0.000000)">
                        <g id="youtube" transform="translate(11.000000, 9.000000)">
                            <path d="M12.1025641,15.2723214 L12.1025641,17.8627232 C12.1025641,18.4151786 11.9358974,18.6852679 11.6025641,18.6852679 C11.4102564,18.6852679 11.2179487,18.5993304 11.025641,18.4151786 L11.025641,14.7198661 C11.2179487,14.5357143 11.4102564,14.4497768 11.6025641,14.4497768 C11.9358974,14.4497768 12.1025641,14.7321429 12.1025641,15.2723214 Z M16.4358974,15.2845982 L16.4358974,15.8493304 L15.2820513,15.8493304 L15.2820513,15.2845982 C15.2820513,14.7321429 15.474359,14.4497768 15.8589744,14.4497768 C16.2435897,14.4497768 16.4358974,14.7321429 16.4358974,15.2845982 Z M4.05128205,12.6082589 L5.42307692,12.6082589 L5.42307692,11.4542411 L1.42307692,11.4542411 L1.42307692,12.6082589 L2.76923077,12.6082589 L2.76923077,19.59375 L4.05128205,19.59375 L4.05128205,12.6082589 Z M7.74358974,19.59375 L8.88461538,19.59375 L8.88461538,13.5290179 L7.74358974,13.5290179 L7.74358974,18.1696429 C7.48717949,18.5133929 7.24358974,18.6852679 7.01282051,18.6852679 C6.85897436,18.6852679 6.76923077,18.5993304 6.74358974,18.4274554 C6.73076923,18.390625 6.73076923,18.2555804 6.73076923,17.9977679 L6.73076923,13.5290179 L5.58974359,13.5290179 L5.58974359,18.3292411 C5.58974359,18.7589286 5.62820513,19.0412946 5.69230769,19.2254464 C5.79487179,19.5323661 6.06410256,19.6796875 6.43589744,19.6796875 C6.84615385,19.6796875 7.28205128,19.4341518 7.74358974,18.9308036 L7.74358974,19.59375 Z M13.2435897,17.7767857 L13.2435897,15.3582589 C13.2435897,14.7935268 13.2179487,14.3883929 13.1282051,14.1428571 C12.9871795,13.6886161 12.6666667,13.4553571 12.2179487,13.4553571 C11.7948718,13.4553571 11.3974359,13.6763393 11.025641,14.1183036 L11.025641,11.4542411 L9.88461538,11.4542411 L9.88461538,19.59375 L11.025641,19.59375 L11.025641,19.0044643 C11.4102564,19.4587054 11.8076923,19.6796875 12.2179487,19.6796875 C12.6666667,19.6796875 12.9871795,19.4464286 13.1282051,19.0044643 C13.2179487,18.7466518 13.2435897,18.3415179 13.2435897,17.7767857 Z M17.5769231,17.6540179 L17.5769231,17.4944196 L16.4102564,17.4944196 C16.4102564,17.9363839 16.3974359,18.1819196 16.3846154,18.2433036 C16.3205128,18.5379464 16.1538462,18.6852679 15.8717949,18.6852679 C15.474359,18.6852679 15.2820513,18.4029018 15.2820513,17.8381696 L15.2820513,16.7700893 L17.5769231,16.7700893 L17.5769231,15.5055804 C17.5769231,14.8549107 17.4615385,14.3883929 17.2307692,14.0814732 C16.8974359,13.6640625 16.4487179,13.4553571 15.8717949,13.4553571 C15.2820513,13.4553571 14.8333333,13.6640625 14.5,14.0814732 C14.2564103,14.3883929 14.1410256,14.8549107 14.1410256,15.5055804 L14.1410256,17.6294643 C14.1410256,18.2801339 14.2692308,18.7589286 14.5128205,19.0535714 C14.8461538,19.4709821 15.2948718,19.6796875 15.8974359,19.6796875 C16.5,19.6796875 16.974359,19.4587054 17.2820513,19.0290179 C17.4230769,18.8325893 17.525641,18.6116071 17.5512821,18.3660714 C17.5769231,18.2555804 17.5769231,18.0100446 17.5769231,17.6540179 Z M9.78205128,6.4453125 L9.78205128,3.8671875 C9.78205128,3.30245536 9.61538462,3.02008929 9.23076923,3.02008929 C8.85897436,3.02008929 8.67948718,3.30245536 8.67948718,3.8671875 L8.67948718,6.4453125 C8.67948718,7.01004464 8.85897436,7.3046875 9.23076923,7.3046875 C9.61538462,7.3046875 9.78205128,7.01004464 9.78205128,6.4453125 Z M19,15.6651786 C19,17.0770089 18.9871795,18.5870536 18.6666667,19.9620536 C18.4230769,20.9319196 17.6025641,21.6439732 16.6153846,21.7421875 C14.2564103,22 11.8717949,22 9.5,22 C7.12820513,22 4.74358974,22 2.38461538,21.7421875 C1.3974359,21.6439732 0.564102564,20.9319196 0.333333333,19.9620536 C0,18.5870536 0,17.0770089 0,15.6651786 L0,15.6651786 C0,14.2410714 0.0128205128,12.7433036 0.333333333,11.3683036 C0.576923077,10.3984375 1.3974359,9.68638393 2.3974359,9.57589286 C4.74358974,9.33035714 7.12820513,9.33035714 9.5,9.33035714 C11.8717949,9.33035714 14.2564103,9.33035714 16.6153846,9.57589286 C17.6025641,9.68638393 18.4358974,10.3984375 18.6666667,11.3683036 C19,12.7433036 19,14.2410714 19,15.6651786 Z M6.20512821,0 L7.51282051,0 L5.96153846,4.8984375 L5.96153846,8.22544643 L4.67948718,8.22544643 L4.67948718,4.8984375 C4.56410256,4.296875 4.30769231,3.4375 3.8974359,2.29575893 C3.61538462,1.53459821 3.33333333,0.761160714 3.06410256,0 L4.42307692,0 L5.33333333,3.22879464 L6.20512821,0 Z M10.9487179,4.08816964 L10.9487179,6.23660714 C10.9487179,6.88727679 10.8333333,7.37834821 10.5897436,7.68526786 C10.2692308,8.10267857 9.82051282,8.31138393 9.23076923,8.31138393 C8.65384615,8.31138393 8.20512821,8.10267857 7.88461538,7.68526786 C7.64102564,7.36607143 7.52564103,6.88727679 7.52564103,6.23660714 L7.52564103,4.08816964 C7.52564103,3.4375 7.64102564,2.95870536 7.88461538,2.65178571 C8.20512821,2.234375 8.65384615,2.02566964 9.23076923,2.02566964 C9.82051282,2.02566964 10.2692308,2.234375 10.5897436,2.65178571 C10.8333333,2.95870536 10.9487179,3.4375 10.9487179,4.08816964 Z M15.2435897,2.09933036 L15.2435897,8.22544643 L14.0769231,8.22544643 L14.0769231,7.55022321 C13.6153846,8.06584821 13.1794872,8.31138393 12.7564103,8.31138393 C12.3846154,8.31138393 12.1153846,8.1640625 12,7.85714286 C11.9358974,7.67299107 11.8974359,7.37834821 11.8974359,6.93638393 L11.8974359,2.09933036 L13.0641026,2.09933036 L13.0641026,6.60491071 C13.0641026,6.86272321 13.0641026,7.01004464 13.0769231,7.03459821 C13.1025641,7.20647321 13.1923077,7.3046875 13.3461538,7.3046875 C13.5769231,7.3046875 13.8205128,7.1328125 14.0769231,6.77678571 L14.0769231,2.09933036 L15.2435897,2.09933036 Z" id="Shape"></path>
                        </g>
                    </g>
                </g>
            </g>
        </g>
    </g>
</svg>